<svg width="1200" height="630" xmlns="http://www.w3.org/2000/svg">
  <defs>
    <radialGradient id="bg" cx="50%" cy="0%" r="80%">
      <stop offset="0%" stop-color="#1a1a2e"/>
      <stop offset="100%" stop-color="#0a0a0f"/>
    </radialGradient>
    <radialGradient id="glow" cx="50%" cy="50%" r="45%">
      <stop offset="0%" stop-color="rgba(245,159,0,0.06)"/>
      <stop offset="100%" stop-color="transparent"/>
    </radialGradient>
    <linearGradient id="accent" x1="0%" y1="0%" x2="100%" y2="0%">
      <stop offset="0%" stop-color="#f59f00"/>
      <stop offset="100%" stop-color="#fcc419"/>
    </linearGradient>
  </defs>

  <rect width="1200" height="630" fill="url(#bg)"/>
  <circle cx="600" cy="315" r="400" fill="url(#glow)"/>
  <rect x="0" y="0" width="1200" height="4" fill="url(#accent)"/>

  <g transform="translate(550, 100)">
    <path d="M50 0 L100 25 L100 85 C100 135 50 160 50 160 C50 160 0 135 0 85 L0 25 Z" fill="none" stroke="url(#accent)" stroke-width="3"/>
    <path d="M50 16 L90 36 L90 82 C90 122 50 145 50 145 C50 145 10 122 10 82 L10 36 Z" fill="rgba(245,159,0,0.08)"/>
    <path d="M36 78 L46 88 L64 66" fill="none" stroke="#f59f00" stroke-width="3" stroke-linecap="round" stroke-linejoin="round"/>
  </g>

  <text x="600" y="280" font-family="'Inter', system-ui, sans-serif" font-size="68" font-weight="800" fill="#ffffff" text-anchor="middle">Rugpull <tspan fill="#f59f00">$RUG</tspan></text>
  <text x="600" y="340" font-family="'Inter', system-ui, sans-serif" font-size="22" font-weight="500" fill="#a0a0b0" text-anchor="middle">13-Factor On-Chain Rug-Pull Detection</text>

  <rect x="490" y="375" width="220" height="34" rx="17" fill="#14141c" stroke="#2a2a3e" stroke-width="1"/>
  <text x="600" y="396" font-family="'Inter', system-ui, sans-serif" font-size="13" font-weight="600" fill="#e4e4e7" text-anchor="middle">rugpullnet / solana-rug</text>

  <text x="600" y="570" font-family="'Inter', system-ui, sans-serif" font-size="13" font-weight="500" fill="#5c5c72" text-anchor="middle">MIT Licensed · Open Source · No Paid APIs</text>
</svg>
